# xmcd
#
# Track frame offsets:
#	150
#	17661
#	33361
#	51475
#	69083
#	85487
#	98297
#	114901
#	129279
#	146933
#	159809
#
# Disc length: 2363 seconds
#
# Revision: 1
# Processed by: cddbd v1.5.1PL2 Copyright (c) Steve Scherf et al.
# Submitted via: audiograbber 1.83.01
#
DISCID=8109390b
DTITLE=Tomlinson, Trent - Country Is My Rock
DYEAR=2006
DGENRE=Country
TTITLE0=Country Is My Rock
TTITLE1=Cheatin' On My Honky-Tonk
TTITLE2=Angels Like Her
TTITLE3=Hey Batter Batter
TTITLE4=Just Might Have Her Radio On
TTITLE5=The Next Time
TTITLE6=A Good Run
TTITLE7=Drunker Than Me
TTITLE8=The Bottle
TTITLE9=I Was Gonna Leave Tomorrow Anyway
TTITLE10=One Wing In the Fire
EXTD=
EXTT0=
EXTT1=
EXTT2=
EXTT3=
EXTT4=
EXTT5=
EXTT6=
EXTT7=
EXTT8=
EXTT9=
EXTT10=
PLAYORDER=
